<?xml version="1.0" encoding="UTF-8" standalone="no"?>
<!-- Generator: Adobe Illustrator 16.0.0, SVG Export Plug-In . SVG Version: 6.00 Build 0)  -->

<svg
   xmlns:dc="http://purl.org/dc/elements/1.1/"
   xmlns:cc="http://creativecommons.org/ns#"
   xmlns:rdf="http://www.w3.org/1999/02/22-rdf-syntax-ns#"
   xmlns:svg="http://www.w3.org/2000/svg"
   xmlns="http://www.w3.org/2000/svg"
   xmlns:xlink="http://www.w3.org/1999/xlink"
   xmlns:sodipodi="http://sodipodi.sourceforge.net/DTD/sodipodi-0.dtd"
   xmlns:inkscape="http://www.inkscape.org/namespaces/inkscape"
   version="1.1"
   id="Layer_1"
   x="0px"
   y="0px"
   width="30"
   height="30"
   viewBox="0 0 30 30"
   enable-background="new 0 0 432 792"
   xml:space="preserve"
   inkscape:version="0.48.4 r9939"
   sodipodi:docname="spinner.svg"
   inkscape:export-filename="/home/leafo/scribd/trash/spinner/spinner_60.png"
   inkscape:export-xdpi="180"
   inkscape:export-ydpi="180"><metadata
     id="metadata3059"><rdf:RDF><cc:Work
         rdf:about=""><dc:format>image/svg+xml</dc:format><dc:type
           rdf:resource="http://purl.org/dc/dcmitype/StillImage" /><dc:title></dc:title></cc:Work></rdf:RDF></metadata><defs
     id="defs3057" /><sodipodi:namedview
     pagecolor="#ffffff"
     bordercolor="#666666"
     borderopacity="1"
     objecttolerance="10"
     gridtolerance="10"
     guidetolerance="10"
     inkscape:pageopacity="1"
     inkscape:pageshadow="2"
     inkscape:window-width="956"
     inkscape:window-height="1178"
     id="namedview3055"
     showgrid="false"
     fit-margin-top="1"
     fit-margin-left="1"
     fit-margin-right="1"
     fit-margin-bottom="1"
     inkscape:zoom="29.216667"
     inkscape:cx="22.411715"
     inkscape:cy="14.114863"
     inkscape:window-x="960"
     inkscape:window-y="18"
     inkscape:window-maximized="0"
     inkscape:current-layer="Layer_1" /><g
     id="g3043"
     transform="translate(-199.666,-381)"><defs
       id="defs3045"><rect
         id="SVGID_1_"
         x="200.666"
         y="382"
         width="28"
         height="28" /></defs><clipPath
       id="SVGID_2_"><use
         xlink:href="#SVGID_1_"
         overflow="visible"
         id="use3049"
         style="overflow:visible"
         x="0"
         y="0"
         width="432"
         height="792" /></clipPath><path
       clip-path="url(#SVGID_2_)"
       d="m 214.666,382 c -7.732,0 -14,6.269 -14,14 0,7.732 6.268,14 14,14 7.732,0 14,-6.268 14,-14 0,-7.731 -6.268,-14 -14,-14 m 0,23.882 c -5.449,0 -9.883,-4.433 -9.883,-9.882 0,-5.448 4.434,-9.883 9.883,-9.883 5.449,0 9.883,4.435 9.883,9.883 0,5.449 -4.434,9.882 -9.883,9.882"
       id="path3051"
       inkscape:connector-curvature="0"
       style="fill:#02b7a1" /><path
       clip-path="url(#SVGID_2_)"
       d="m 214.666,382 v 4.118 c 5.449,0 9.883,4.433 9.883,9.882 0,5.449 -4.434,9.882 -9.883,9.882 V 410 c 7.732,0 14,-6.268 14,-14 0,-7.732 -6.268,-14 -14,-14"
       id="path3053"
       inkscape:connector-curvature="0"
       style="fill:#017f70" /></g></svg>