<?xml version="1.0" standalone="no"?>
<!DOCTYPE svg PUBLIC "-//W3C//DTD SVG 20010904//EN"
 "http://www.w3.org/TR/2001/REC-SVG-20010904/DTD/svg10.dtd">
<svg version="1.0" xmlns="http://www.w3.org/2000/svg"
 width="694.000000pt" height="694.000000pt" viewBox="0 0 694.000000 694.000000"
 preserveAspectRatio="xMidYMid meet">
<metadata>
Created by potrace 1.11, written by Peter Selinger 2001-2013
</metadata>
<g transform="translate(0.000000,694.000000) scale(0.100000,-0.100000)"
fill="#000000" stroke="none">
<path d="M3071 6115 c-878 -92 -1520 -603 -1686 -1343 -49 -221 -58 -548 -20
-791 82 -528 399 -889 849 -967 121 -21 320 -14 430 15 274 73 481 274 562
546 23 77 27 110 28 230 1 121 -2 150 -22 215 -101 321 -386 527 -702 507 -52
-4 -124 -13 -160 -22 -36 -9 -101 -18 -145 -21 -73 -5 -83 -4 -114 18 -55 37
-74 79 -79 175 -10 194 70 377 235 536 243 235 570 366 962 386 561 29 1052
-90 1518 -366 l93 -55 -77 -112 c-43 -61 -115 -164 -161 -230 -46 -65 -80
-122 -75 -126 12 -12 437 -289 439 -287 14 16 595 852 597 857 3 13 -314 255
-439 337 -284 184 -576 315 -899 401 -165 45 -205 53 -405 83 -179 27 -540 34
-729 14z"/>
<path d="M4479 3595 c-182 -36 -372 -156 -481 -302 -98 -133 -147 -277 -155
-458 -6 -153 10 -237 73 -364 38 -77 61 -109 133 -180 71 -72 103 -95 181
-134 169 -84 293 -95 524 -48 98 19 151 25 179 20 109 -20 153 -113 135 -289
-20 -180 -201 -428 -426 -579 -189 -127 -463 -219 -752 -251 -142 -16 -474
-13 -623 5 -484 60 -943 232 -1315 495 l-74 52 25 26 c108 118 377 445 371
452 -5 4 -100 78 -212 163 l-204 156 -117 -137 c-342 -402 -601 -712 -601
-721 0 -22 324 -295 493 -414 406 -287 930 -499 1418 -572 307 -47 551 -55
845 -30 202 17 290 29 399 56 502 123 928 403 1160 760 106 162 195 388 234
592 31 161 44 396 31 576 -25 361 -118 611 -307 828 -93 107 -266 221 -406
267 -134 44 -387 59 -528 31z"/>
</g>
</svg>
